<svg xmlns="http://www.w3.org/2000/svg" viewBox="0 0 100 100">
  <g fill="#1f2e4a">
    <ellipse cx="20" cy="39" rx="9.0" ry="12.0" transform="rotate(-22 20 39)"></ellipse>
    <ellipse cx="80" cy="39" rx="9.0" ry="12.0" transform="rotate(22 80 39)"></ellipse>
    <ellipse cx="38.5" cy="23.5" rx="9.7" ry="13.3" transform="rotate(-10 38.5 23.5)"></ellipse>
    <ellipse cx="61.5" cy="23.5" rx="9.7" ry="13.3" transform="rotate(10 61.5 23.5)"></ellipse>
    <path d="M20 80C20 60 35.5 47 50 47s30 13 30 33c0 10-7.3 15.5-16 15.5-6.8-2.2-11.2-4.2-14-4.2s-7.2 2-14 4.2C27.3 95.5 20 90 20 80Z"></path>
  </g>
</svg>
